<svg width="740" height="686" viewBox="0 0 740 686" fill="none" xmlns="http://www.w3.org/2000/svg">
<circle cx="287.849" cy="394.105" r="287.849" fill="#195630" fill-opacity="0.09"/>
<g clip-path="url(#clip0_163_5589)">
<path d="M305.346 342.495V201.168L184.695 130.503L64.043 201.168V342.495L184.695 413.158L305.346 342.495Z" fill="#57CC62"/>
<path d="M184.696 130.503L157.914 146.19L251.784 201.168V342.495L157.914 397.474L184.696 413.158L305.348 342.495V201.168L184.696 130.503Z" fill="#49BF53"/>
<path d="M305.351 625.017L426.003 554.354V413.027L305.351 342.362L184.699 413.027V554.354" fill="#9AFFA3"/>
<path d="M305.352 342.362L278.57 358.049L372.44 413.027V554.354L278.57 609.332L305.352 625.017L426.004 554.354V413.027L305.352 342.362Z" fill="#78F583"/>
<path d="M667.304 554.354V413.027L546.652 342.362L426 413.027V554.354L546.652 625.017L667.304 554.354Z" fill="#70E07A"/>
<path d="M546.653 342.362L519.871 358.049L613.741 413.027V554.354L519.871 609.332L546.653 625.017L667.305 554.354V413.027L546.653 342.362Z" fill="#56D661"/>
<path d="M734.654 581.018L677.347 547.455V413.025C677.347 409.459 675.456 406.161 672.38 404.359L638.26 384.374C633.475 381.573 627.322 383.178 624.518 387.964C621.715 392.75 623.322 398.903 628.108 401.706L657.262 418.781V548.595L546.653 613.375L436.045 548.595V418.781L546.653 354L581.869 374.625C586.653 377.428 592.808 375.823 595.611 371.035C598.413 366.249 596.806 360.096 592.02 357.293L556.696 336.604V272.681C556.696 259.696 536.61 259.696 536.61 272.681V336.604L426.001 401.386L315.393 336.604V253.308C320.56 254.178 325.858 254.654 331.266 254.654C384.302 254.654 427.449 211.102 427.449 157.569C427.449 104.036 384.302 60.4841 331.266 60.4841C316.875 60.4841 303.017 63.6283 290.076 69.8283C278.365 75.4378 287.047 93.5612 298.753 87.9423C308.964 83.0506 319.903 80.5706 331.266 80.5706C348.672 80.5706 364.721 86.5282 377.557 96.5166L341.31 133.144V124.051C341.31 118.505 336.813 114.008 331.266 114.008C325.72 114.008 321.223 118.505 321.223 124.051V147.526H298.096C292.549 147.526 288.052 152.022 288.052 157.569C288.052 163.116 292.549 167.612 298.096 167.612H307.199L270.865 204.326C261.032 191.353 255.171 175.145 255.171 157.569C255.171 144.293 258.583 131.187 265.038 119.668C271.386 108.34 253.864 98.5199 247.515 109.849C240.841 121.76 236.754 135.013 235.502 148.617L194.742 124.745V60.0783C194.742 47.093 174.656 47.093 174.656 60.0783V124.746L58.9707 192.501C55.8908 194.303 54 197.601 54 201.167V342.495C54 346.061 55.8908 349.359 58.9667 351.162L174.652 418.916V544.311H122.462C109.476 544.311 109.476 564.398 122.462 564.398H167.962L143.563 610.172C137.608 621.344 155.241 630.963 161.289 619.621L193.512 559.164C194.303 557.711 194.737 556.008 194.737 554.354V418.915L305.459 354.067L415.955 418.782V548.596L300.27 616.351C289.336 622.754 299.389 640.145 310.422 633.683L425.999 565.991L541.575 633.683C544.959 635.519 548.343 635.519 551.727 633.683L668.277 565.421L724.502 598.35C735.335 604.696 745.834 587.567 734.654 581.018ZM331.265 234.569C313.859 234.569 297.81 228.611 284.975 218.624L321.222 181.997V191.089C321.222 196.636 325.719 201.133 331.265 201.133C336.812 201.133 341.308 196.636 341.308 191.089V167.614H364.436C369.983 167.614 374.479 163.117 374.479 157.57C374.479 152.024 369.983 147.527 364.436 147.527H355.334L391.667 110.814C401.498 123.787 407.361 139.996 407.361 157.57C407.361 200.028 373.225 234.569 331.265 234.569ZM74.0865 206.923L184.695 142.142L236.188 172.3C241.375 206.556 264.374 234.954 295.304 247.589V336.606L184.581 401.453L74.0865 336.738V206.923Z" fill="black"/>
<path d="M504.172 531.7C504.172 537.626 507.773 543.355 514.454 543.355C515.297 543.352 535.208 543.275 543.155 543.134C571.486 542.636 592.049 517.636 592.049 483.69C592.049 448.003 572 424.026 542.161 424.026H514.215C508.572 424.026 504.172 428.587 504.172 434.173V531.7ZM542.16 444.113C564.133 444.113 571.961 464.557 571.961 483.69C571.961 502.4 562.837 522.698 542.8 523.05C538.612 523.124 530.8 523.182 524.423 523.218C524.384 511.535 524.328 492.701 524.328 483.58C524.328 475.976 524.296 456.251 524.275 444.112L542.16 444.113Z" fill="black"/>
<path d="M346.418 507.176C346.418 494.464 340.092 483.214 330.443 476.411C334.733 470.766 337.288 463.722 337.288 456.089C337.288 437.576 322.287 422.515 303.848 422.515H274.313C268.766 422.515 264.27 427.012 264.27 432.558V479.649V479.726V534.824C264.27 539.825 269.268 544.868 274.358 544.868C274.358 544.868 301.519 544.746 309.006 544.746C329.635 544.746 346.418 527.892 346.418 507.176ZM303.848 442.602C311.212 442.602 317.202 448.653 317.202 456.089C317.202 463.527 311.212 469.578 303.848 469.578C297.351 469.578 290.853 469.613 284.356 469.606V442.602H303.848ZM284.356 489.726C292.573 489.693 300.79 489.693 309.006 489.693C318.559 489.693 326.332 497.536 326.332 507.177C326.332 516.819 318.559 524.661 309.006 524.661C304.507 524.661 292.917 524.705 284.356 524.74V489.726Z" fill="black"/>
<path d="M194.102 333.009C207.453 333.009 219.419 328.611 228.705 320.294C230.522 318.666 232.251 316.872 233.843 314.963C237.394 310.703 236.821 304.369 232.561 300.818C228.302 297.265 221.968 297.839 218.416 302.1C217.446 303.263 216.398 304.351 215.303 305.332C209.68 310.368 202.547 312.922 194.101 312.922C171.607 312.922 153.307 294.489 153.307 271.832C153.307 249.174 171.607 230.741 194.101 230.741C202.268 230.741 210.145 233.161 216.881 237.738C221.47 240.857 227.715 239.664 230.831 235.076C233.949 230.488 232.757 224.241 228.169 221.125C218.09 214.276 206.308 210.656 194.1 210.656C160.53 210.656 133.219 238.1 133.219 271.833C133.219 305.566 160.531 333.009 194.102 333.009Z" fill="black"/>
</g>
<defs>
<clipPath id="clip0_163_5589">
<rect width="685.438" height="685.438" fill="white" transform="translate(54)"/>
</clipPath>
</defs>
</svg>
