<svg width="740" height="687" viewBox="0 0 740 687" fill="none" xmlns="http://www.w3.org/2000/svg">
<circle cx="287.849" cy="394.732" r="287.849" fill="#FBAC3D" fill-opacity="0.3"/>
<g clip-path="url(#clip0_1_230)">
<path d="M305.304 342.992V201.664L184.652 131L64 201.664V342.992L184.652 413.655L305.304 342.992Z" fill="#EE9F30"/>
<path d="M184.696 131.13L157.914 146.816L251.784 201.795V343.122L157.914 398.1L184.696 413.785L305.348 343.122V201.795L184.696 131.13Z" fill="#FBAC3D"/>
<path d="M305.351 625.644L426.003 554.981V413.653L305.351 342.989L184.699 413.653V554.981" fill="#FBAC3D"/>
<path d="M305.352 342.989L278.57 358.675L372.44 413.653V554.981L278.57 609.959L305.352 625.644L426.004 554.981V413.653L305.352 342.989Z" fill="#E29425"/>
<path d="M667.303 554.981V413.653L546.652 342.989L426 413.653V554.981L546.652 625.644L667.303 554.981Z" fill="#FBAC3D"/>
<path d="M546.653 342.989L519.871 358.675L613.741 413.653V554.981L519.871 609.959L546.653 625.644L667.305 554.981V413.653L546.653 342.989Z" fill="#EE9F30"/>
<path d="M734.654 581.645L677.347 548.082V413.652C677.347 410.086 675.456 406.788 672.38 404.985L638.26 385.001C633.475 382.199 627.322 383.805 624.518 388.591C621.715 393.377 623.322 399.53 628.108 402.333L657.262 419.408V549.221L546.653 614.002L436.045 549.221V419.408L546.653 354.627L581.869 375.252C586.653 378.055 592.808 376.449 595.611 371.662C598.413 366.876 596.806 360.723 592.02 357.92L556.696 337.231V273.308C556.696 260.322 536.61 260.322 536.61 273.308V337.231L426.001 402.013L315.393 337.231V253.935C320.56 254.805 325.858 255.281 331.266 255.281C384.302 255.281 427.449 211.729 427.449 158.196C427.449 104.662 384.302 61.1108 331.266 61.1108C316.875 61.1108 303.017 64.255 290.076 70.455C278.365 76.0645 287.047 94.1879 298.753 88.569C308.964 83.6773 319.903 81.1973 331.266 81.1973C348.672 81.1973 364.721 87.155 377.557 97.1433L341.31 133.77V124.678C341.31 119.131 336.813 114.635 331.266 114.635C325.72 114.635 321.223 119.131 321.223 124.678V148.152H298.096C292.549 148.152 288.052 152.649 288.052 158.196C288.052 163.742 292.549 168.239 298.096 168.239H307.199L270.865 204.953C261.032 191.98 255.171 175.771 255.171 158.196C255.171 144.92 258.583 131.814 265.038 120.295C271.386 108.966 253.864 99.1466 247.515 110.475C240.841 122.387 236.754 135.64 235.502 149.244L194.742 125.372V60.705C194.742 47.7197 174.656 47.7197 174.656 60.705V125.373L58.9707 193.127C55.8908 194.93 54 198.228 54 201.794V343.122C54 346.688 55.8908 349.986 58.9667 351.788L174.652 419.543V544.938H122.462C109.476 544.938 109.476 565.024 122.462 565.024H167.962L143.563 610.799C137.608 621.971 155.241 631.59 161.289 620.247L193.512 559.791C194.303 558.338 194.737 556.635 194.737 554.981V419.542L305.459 354.694L415.955 419.409V549.223L300.27 616.977C289.336 623.381 299.389 640.772 310.422 634.309L425.999 566.618L541.575 634.309C544.959 636.145 548.343 636.145 551.727 634.309L668.277 566.047L724.502 598.977C735.335 605.323 745.834 588.193 734.654 581.645ZM331.265 235.195C313.859 235.195 297.81 229.238 284.975 219.251L321.222 182.624V191.716C321.222 197.263 325.719 201.759 331.265 201.759C336.812 201.759 341.308 197.263 341.308 191.716V168.24H364.436C369.983 168.24 374.479 163.744 374.479 158.197C374.479 152.65 369.983 148.154 364.436 148.154H355.334L391.667 111.441C401.498 124.414 407.361 140.623 407.361 158.197C407.361 200.655 373.225 235.195 331.265 235.195ZM74.0865 207.55L184.695 142.769L236.188 172.927C241.375 207.183 264.374 235.581 295.304 248.215V337.232L184.581 402.08L74.0865 337.365V207.55Z" fill="black"/>
<path d="M504.172 532.326C504.172 538.253 507.773 543.982 514.454 543.982C515.297 543.979 535.208 543.901 543.155 543.761C571.486 543.263 592.049 518.263 592.049 484.317C592.049 448.63 572 424.653 542.161 424.653H514.215C508.572 424.653 504.172 429.214 504.172 434.799V532.326ZM542.16 444.74C564.133 444.74 571.961 465.184 571.961 484.317C571.961 503.027 562.837 523.325 542.8 523.677C538.612 523.751 530.8 523.808 524.423 523.844C524.384 512.162 524.328 493.328 524.328 484.207C524.328 476.602 524.296 456.877 524.275 444.738L542.16 444.74Z" fill="black"/>
<path d="M346.418 507.803C346.418 495.09 340.092 483.841 330.443 477.038C334.733 471.392 337.288 464.349 337.288 456.716C337.288 438.203 322.287 423.142 303.848 423.142H274.313C268.766 423.142 264.27 427.639 264.27 433.185V480.276V480.352V535.451C264.27 540.451 269.268 545.494 274.358 545.494C274.358 545.494 301.519 545.372 309.006 545.372C329.635 545.372 346.418 528.518 346.418 507.803ZM303.848 443.228C311.212 443.228 317.202 449.28 317.202 456.716C317.202 464.153 311.212 470.205 303.848 470.205C297.351 470.205 290.853 470.239 284.356 470.233V443.228H303.848ZM284.356 490.353C292.573 490.319 300.79 490.319 309.006 490.319C318.559 490.319 326.332 498.162 326.332 507.804C326.332 517.445 318.559 525.287 309.006 525.287C304.507 525.287 292.917 525.331 284.356 525.366V490.353Z" fill="black"/>
<path d="M194.102 333.635C207.453 333.635 219.419 329.238 228.705 320.921C230.522 319.292 232.251 317.499 233.843 315.59C237.394 311.33 236.821 304.996 232.561 301.445C228.302 297.892 221.968 298.465 218.416 302.726C217.446 303.89 216.398 304.977 215.303 305.959C209.68 310.995 202.547 313.549 194.101 313.549C171.607 313.549 153.307 295.116 153.307 272.458C153.307 249.801 171.607 231.368 194.101 231.368C202.268 231.368 210.145 233.788 216.881 238.365C221.47 241.484 227.715 240.291 230.831 235.703C233.949 231.115 232.757 224.868 228.169 221.752C218.09 214.903 206.308 211.283 194.1 211.283C160.53 211.283 133.219 238.727 133.219 272.46C133.219 306.193 160.531 333.635 194.102 333.635Z" fill="black"/>
</g>
<defs>
<clipPath id="clip0_1_230">
<rect width="685.438" height="685.438" fill="white" transform="translate(54 0.626709)"/>
</clipPath>
</defs>
</svg>
